<?xml version="1.0" encoding="utf-8"?><!-- Uploaded to: SVG Repo, www.svgrepo.com, Generator: SVG Repo Mixer Tools -->
<svg fill="#000000" width="800px" height="800px" viewBox="0 0 24 24" id="id-card-2" data-name="Flat Color" xmlns="http://www.w3.org/2000/svg" class="icon flat-color"><rect id="secondary" x="9" y="2" width="6" height="4" rx="1" style="fill: rgb(44, 169, 188);"></rect><rect id="primary" x="4" y="4" width="16" height="18" rx="2" style="fill: rgb(0, 0, 0);"></rect><path id="secondary-2" data-name="secondary" d="M14.4,12.8A3,3,0,0,0,15,11a3,3,0,0,0-6,0,3,3,0,0,0,.6,1.8A4,4,0,0,0,8,16v1a1,1,0,0,0,1,1h6a1,1,0,0,0,1-1V16A4,4,0,0,0,14.4,12.8Z" style="fill: rgb(44, 169, 188);"></path></svg>